# xmcd
#
# Track frame offsets:
#	150
#	28143
#	50022
#	66421
#	113074
#	122937
#	144226
#	172574
#	212177
#	236591
#	264661
#
# Disc length: 3950 seconds
#
# Revision: 1
# Processed by: cddbd v1.4PL0 Copyright (c) Steve Scherf et al.
# Submitted via: audiograbber 1.81.03
#
DISCID=a00f6c0b
DTITLE=Matt Thorpe - Don`t Make Idle Frets
DYEAR=1900
DGENRE=
TTITLE0=Child Of Mine
TTITLE1=Heardbeat
TTITLE2=Shuffle In the Nineties
TTITLE3=The Epic Finale
TTITLE4=Small Peace
TTITLE5=Eventune
TTITLE6=Running
TTITLE7=Right By Me
TTITLE8=AAA
TTITLE9=So Cool
TTITLE10=Daten
EXTD=
EXTT0=
EXTT1=
EXTT2=
EXTT3=
EXTT4=
EXTT5=
EXTT6=
EXTT7=
EXTT8=
EXTT9=
EXTT10=
PLAYORDER=
